<svg width="267" height="62" viewBox="0 0 267 62" fill="none" xmlns="http://www.w3.org/2000/svg">
<path d="M23.875 32.375C23.875 32.8125 23.9219 33.2656 24.0156 33.7344C24.1406 34.2031 24.2812 34.6562 24.4375 35.0938C24.5938 35.5 24.75 35.875 24.9062 36.2188C25.0625 36.5625 25.1875 36.8281 25.2812 37.0156C25.375 37.2031 25.4219 37.4219 25.4219 37.6719C25.4219 38.1719 25.2031 38.5469 24.7656 38.7969C24.6406 38.8594 24.5312 38.9062 24.4375 38.9375C24.3438 38.9688 24.2344 38.9844 24.1094 38.9844C23.6094 38.9844 23.2344 38.75 22.9844 38.2812C22.9531 38.25 22.8438 38.0625 22.6562 37.7188C22.4688 37.3438 22.2656 36.875 22.0469 36.3125C21.8594 35.75 21.6719 35.125 21.4844 34.4375C21.3281 33.75 21.25 33.0625 21.25 32.375C21.25 32.2188 21.2344 32.0469 21.2031 31.8594C21.2031 31.6406 21.1875 31.4062 21.1562 31.1562C21.125 30.7188 21.0938 30.25 21.0625 29.75C21.0312 29.2188 21.0156 28.5938 21.0156 27.875C21.0156 27.4062 20.9844 26.9219 20.9219 26.4219C20.8594 25.8906 20.7969 25.3125 20.7344 24.6875C20.6406 23.9062 20.5469 23.0781 20.4531 22.2031C20.3906 21.2969 20.3594 20.3438 20.3594 19.3438C20.3594 18.7188 20.2188 18.0469 19.9375 17.3281C19.6875 16.5781 19.3125 15.8906 18.8125 15.2656C18.3125 14.6406 17.6875 14.125 16.9375 13.7188C16.2188 13.3125 15.375 13.1094 14.4062 13.1094C13.1875 13.1094 12.0938 13.3438 11.125 13.8125C10.1875 14.25 9.375 14.8125 8.6875 15.5C8 16.1875 7.40625 16.9375 6.90625 17.75C6.4375 18.5312 6.0625 19.2812 5.78125 20C5.5 20.6875 5.28125 21.2812 5.125 21.7812C5 22.2812 4.9375 22.5625 4.9375 22.625C4.84375 22.9062 4.71875 23.125 4.5625 23.2812V24.125C4.5625 24.875 4.67188 25.7344 4.89062 26.7031C5.10938 27.6719 5.35938 28.7031 5.64062 29.7969C5.98438 31.2031 6.3125 32.6719 6.625 34.2031C6.96875 35.7344 7.14062 37.2969 7.14062 38.8906C7.14062 39.2656 7.01562 39.5781 6.76562 39.8281C6.51562 40.0781 6.20312 40.2031 5.82812 40.2031C5.48438 40.2031 5.17188 40.0781 4.89062 39.8281C4.64062 39.5781 4.51562 39.2656 4.51562 38.8906C4.51562 37.4531 4.35938 36.0156 4.04688 34.5781C3.76562 33.1406 3.45312 31.7656 3.10938 30.4531C2.79688 29.2969 2.51562 28.1875 2.26562 27.125C2.04688 26.0312 1.9375 25.0312 1.9375 24.125C1.9375 23.2188 1.875 22.0781 1.75 20.7031C1.625 19.3281 1.46875 18 1.28125 16.7188C1.125 15.4062 0.96875 14.2812 0.8125 13.3438C0.6875 12.375 0.625 11.8594 0.625 11.7969C0.625 11.4844 0.734375 11.2031 0.953125 10.9531C1.17188 10.7031 1.5 10.5469 1.9375 10.4844C2.28125 10.4844 2.5625 10.5938 2.78125 10.8125C3.03125 11 3.1875 11.2656 3.25 11.6094C3.25 11.6719 3.28125 11.875 3.34375 12.2188C3.40625 12.5312 3.46875 12.9688 3.53125 13.5312C3.59375 14.0625 3.67188 14.6719 3.76562 15.3594C3.85938 16.0469 3.95312 16.7656 4.04688 17.5156C4.51562 16.6406 5.0625 15.7812 5.6875 14.9375C6.34375 14.0938 7.09375 13.3438 7.9375 12.6875C8.8125 12.0312 9.78125 11.5 10.8438 11.0938C11.9062 10.6875 13.0938 10.4844 14.4062 10.4844C15.6875 10.4844 16.8438 10.75 17.875 11.2812C18.9375 11.7812 19.8438 12.4531 20.5938 13.2969C21.3438 14.1406 21.9219 15.0938 22.3281 16.1562C22.7656 17.2188 22.9844 18.2812 22.9844 19.3438C22.9844 20.2812 23.0156 21.1719 23.0781 22.0156C23.1719 22.8594 23.2656 23.6406 23.3594 24.3594C23.4219 24.9844 23.4844 25.5938 23.5469 26.1875C23.6094 26.7812 23.6406 27.3438 23.6406 27.875C23.6406 29.125 23.6875 30.125 23.7812 30.875C23.8125 31.1562 23.8281 31.4219 23.8281 31.6719C23.8594 31.8906 23.875 32.125 23.875 32.375ZM38.7812 36.3594C39.375 36.3594 40.125 36.0781 41.0312 35.5156C41.9688 34.9219 42.875 34.1094 43.75 33.0781C44.625 32.0156 45.375 30.75 46 29.2812C46.625 27.8125 46.9375 26.1719 46.9375 24.3594C46.9375 22.6094 46.7188 21.0781 46.2812 19.7656C45.875 18.4219 45.3906 17.2969 44.8281 16.3906C44.2969 15.4531 43.75 14.75 43.1875 14.2812C42.6562 13.8125 42.2656 13.5469 42.0156 13.4844C41.4844 13.4844 41 13.5312 40.5625 13.625C40.1562 13.6875 39.875 13.7344 39.7188 13.7656C39.3438 13.7656 39 13.6094 38.6875 13.2969C37.9062 13.6094 37.0938 14.3125 36.25 15.4062C35.4062 16.5 34.625 17.7812 33.9062 19.25C33.1875 20.6875 32.5938 22.2344 32.125 23.8906C31.6562 25.5156 31.4219 27.0156 31.4219 28.3906C31.4219 29.8281 31.6719 31.0625 32.1719 32.0938C32.6719 33.0938 33.2969 33.9062 34.0469 34.5312C34.7969 35.1562 35.5938 35.625 36.4375 35.9375C37.2812 36.2188 38.0625 36.3594 38.7812 36.3594ZM42.0625 10.8594C42.7188 10.8594 43.4688 11.1875 44.3125 11.8438C45.1875 12.4688 46 13.375 46.75 14.5625C47.5312 15.7188 48.1875 17.125 48.7188 18.7812C49.2812 20.4375 49.5625 22.2969 49.5625 24.3594C49.5625 26.4531 49.2031 28.3906 48.4844 30.1719C47.7656 31.9531 46.8594 33.5 45.7656 34.8125C44.7031 36.125 43.5312 37.1562 42.25 37.9062C41 38.625 39.8438 38.9844 38.7812 38.9844C37.5625 38.9844 36.3594 38.75 35.1719 38.2812C33.9844 37.8125 32.9219 37.1406 31.9844 36.2656C31.0469 35.3594 30.2812 34.25 29.6875 32.9375C29.0938 31.625 28.7969 30.1094 28.7969 28.3906C28.7969 27.2969 28.9375 26.0938 29.2188 24.7812C29.5 23.4688 29.875 22.1562 30.3438 20.8438C30.8438 19.5 31.4219 18.2188 32.0781 17C32.7656 15.75 33.5 14.6406 34.2812 13.6719C35.0625 12.7031 35.8906 11.9375 36.7656 11.375C37.6406 10.7812 38.5312 10.4844 39.4375 10.4844C39.7812 10.4844 40.0781 10.5312 40.3281 10.625C40.6094 10.6875 40.8594 10.7812 41.0781 10.9062C41.2344 10.9062 41.3906 10.9062 41.5469 10.9062C41.7031 10.875 41.875 10.8594 42.0625 10.8594ZM70 32.4688C70.1562 32.25 70.3906 32.0938 70.7031 32C70.5156 30.7812 70.3281 29.4844 70.1406 28.1094C69.9844 26.7031 69.8281 25.3281 69.6719 23.9844C69.5469 22.6094 69.4375 21.3125 69.3438 20.0938C69.25 18.8438 69.2031 17.7656 69.2031 16.8594C69.2031 16.6406 69.2031 16.4219 69.2031 16.2031C69.2031 15.9844 69.1875 15.75 69.1562 15.5C68.6562 15.3438 68.3594 14.9844 68.2656 14.4219C68.2656 14.3594 68.2188 14.2656 68.125 14.1406C68.0625 13.9844 67.9062 13.8438 67.6562 13.7188C67.4062 13.5938 67.1094 13.5312 66.7656 13.5312C66.4219 13.5312 66.0781 13.5938 65.7344 13.7188C65.3906 13.8125 65.0781 13.9219 64.7969 14.0469C63.9219 14.4531 63.0312 15.0469 62.125 15.8281C61.2188 16.6094 60.3594 17.4844 59.5469 18.4531C58.7656 19.4219 58.0625 20.4531 57.4375 21.5469C56.8438 22.6094 56.4062 23.6406 56.125 24.6406C55.9062 25.4844 55.7969 26.3438 55.7969 27.2188C55.7969 28.3125 55.9688 29.3281 56.3125 30.2656C56.6875 31.2031 57.1406 32.0469 57.6719 32.7969C58.2344 33.5469 58.8438 34.1875 59.5 34.7188C60.1562 35.2188 60.7812 35.6094 61.375 35.8906C61.75 36.0781 62.2344 36.1719 62.8281 36.1719C63.8594 36.1719 65.0312 35.8906 66.3438 35.3281C67.6875 34.7344 68.9062 33.7812 70 32.4688ZM71.8281 16.8594C71.8281 17.8594 71.875 19.0625 71.9688 20.4688C72.0938 21.875 72.25 23.3438 72.4375 24.875C72.625 26.4062 72.8125 27.9375 73 29.4688C73.2188 30.9688 73.4062 32.3438 73.5625 33.5938C73.75 34.8125 73.9062 35.8125 74.0312 36.5938C74.1562 37.375 74.2188 37.7969 74.2188 37.8594C74.2188 38.1719 74.1094 38.4531 73.8906 38.7031C73.6719 38.9531 73.3438 39.1094 72.9062 39.1719C72.5938 39.1719 72.3125 39.0625 72.0625 38.8438C71.8125 38.6562 71.6562 38.3906 71.5938 38.0469C71.5938 37.9844 71.5469 37.6875 71.4531 37.1562C71.3906 36.625 71.2969 35.9219 71.1719 35.0469C69.8906 36.3594 68.5156 37.3125 67.0469 37.9062C65.5781 38.5 64.1875 38.7969 62.875 38.7969C61.8125 38.7969 60.9531 38.625 60.2969 38.2812C59.3594 37.8438 58.4531 37.2656 57.5781 36.5469C56.7344 35.7969 55.9844 34.9531 55.3281 34.0156C54.6719 33.0469 54.1406 31.9844 53.7344 30.8281C53.3594 29.6719 53.1719 28.4531 53.1719 27.1719C53.1719 26.1406 53.3125 25.0625 53.5938 23.9375C53.9062 22.75 54.4062 21.5312 55.0938 20.2812C55.8125 19.0312 56.625 17.8594 57.5312 16.7656C58.4375 15.6719 59.4219 14.6875 60.4844 13.8125C61.5469 12.9062 62.6094 12.2031 63.6719 11.7031C64.7969 11.1719 65.8281 10.9062 66.7656 10.9062C67.1406 10.9062 67.5 10.9531 67.8438 11.0469C68.1875 11.1094 68.5781 11.25 69.0156 11.4688C68.9531 10.3125 68.875 9.1875 68.7812 8.09375C68.7188 7 68.6406 6.03125 68.5469 5.1875C68.4844 4.3125 68.4219 3.60938 68.3594 3.07812C68.3281 2.54687 68.3125 2.25 68.3125 2.1875C68.3125 1.84375 68.4219 1.5625 68.6406 1.34375C68.8906 1.09375 69.2188 0.9375 69.625 0.875C69.9688 0.875 70.25 1 70.4688 1.25C70.7188 1.46875 70.875 1.75 70.9375 2.09375C70.9375 2.1875 70.9844 2.71875 71.0781 3.6875C71.1719 4.65625 71.2656 5.85938 71.3594 7.29688C71.4844 8.73438 71.5938 10.3125 71.6875 12.0312C71.7812 13.7188 71.8281 15.3281 71.8281 16.8594ZM87.9062 36.2188C88.5625 36.2188 89.2812 35.9219 90.0625 35.3281C90.8438 34.7031 91.5938 33.875 92.3125 32.8438C93.0625 31.8125 93.7344 30.6094 94.3281 29.2344C94.9219 27.8281 95.3594 26.3438 95.6406 24.7812C95.4219 23.2812 95.25 21.7031 95.125 20.0469C95 18.3906 94.9219 16.625 94.8906 14.75C94.5469 14.4688 94.375 14.125 94.375 13.7188C94.1562 13.625 93.9219 13.5469 93.6719 13.4844C93.4531 13.4219 93.2031 13.3906 92.9219 13.3906C92.5156 13.3906 91.9375 13.4844 91.1875 13.6719C90.4375 13.8281 89.625 14.1094 88.75 14.5156C87.875 14.8906 86.9844 15.3906 86.0781 16.0156C85.2031 16.6406 84.3906 17.4062 83.6406 18.3125C82.9219 19.2188 82.3281 20.2656 81.8594 21.4531C81.3906 22.6406 81.1562 23.9844 81.1562 25.4844C81.1562 27.8594 81.3438 29.75 81.7188 31.1562C82.125 32.5625 82.6406 33.6406 83.2656 34.3906C83.9219 35.1406 84.6406 35.6406 85.4219 35.8906C86.2344 36.1094 87.0625 36.2188 87.9062 36.2188ZM98.3125 24.7812C98.5938 26.7188 98.9219 28.4531 99.2969 29.9844C99.6719 31.5156 100.016 32.8125 100.328 33.875C100.672 34.9375 100.953 35.7656 101.172 36.3594C101.422 36.9219 101.547 37.2188 101.547 37.25C101.578 37.3438 101.594 37.4375 101.594 37.5312C101.625 37.5938 101.641 37.6719 101.641 37.7656C101.641 38.3281 101.391 38.7344 100.891 38.9844C100.641 39.0469 100.453 39.0781 100.328 39.0781C99.7344 39.0781 99.3438 38.8281 99.1562 38.3281C99.0938 38.2031 98.7969 37.4688 98.2656 36.125C97.7656 34.75 97.2344 32.8438 96.6719 30.4062C96.1719 31.625 95.5781 32.75 94.8906 33.7812C94.2344 34.8125 93.5156 35.7031 92.7344 36.4531C91.9844 37.2031 91.1875 37.7812 90.3438 38.1875C89.5312 38.625 88.7188 38.8438 87.9062 38.8438C84.7188 38.8438 82.3594 37.75 80.8281 35.5625C79.2969 33.375 78.5312 30.0156 78.5312 25.4844C78.5312 23.6094 78.8125 21.9531 79.375 20.5156C79.9375 19.0469 80.6562 17.7656 81.5312 16.6719C82.4375 15.5781 83.4375 14.6562 84.5312 13.9062C85.6562 13.1562 86.75 12.5469 87.8125 12.0781C88.875 11.6094 89.8594 11.2812 90.7656 11.0938C91.6719 10.875 92.3906 10.7656 92.9219 10.7656C93.8594 10.7656 94.6719 10.9531 95.3594 11.3281C96.0469 11.6719 96.6094 12.0781 97.0469 12.5469C97.5156 12.9844 97.8594 13.4062 98.0781 13.8125C98.2969 14.1875 98.4062 14.3906 98.4062 14.4219C98.5 14.5781 98.5469 14.75 98.5469 14.9375C98.5469 15.25 98.4062 15.5781 98.125 15.9219C98.4062 17.3906 98.5469 19.3281 98.5469 21.7344C98.5469 22.2344 98.5156 22.7344 98.4531 23.2344C98.4219 23.7344 98.375 24.25 98.3125 24.7812ZM120.953 13.5312C121.234 13.5938 121.469 13.7656 121.656 14.0469C121.844 14.3281 121.922 14.6875 121.891 15.125C121.734 15.7812 121.203 16.1094 120.297 16.1094C120.297 16.0781 119.719 15.9688 118.562 15.7812C117.406 15.5938 115.859 15.4844 113.922 15.4531C114.016 17.2344 114.062 18.7031 114.062 19.8594C114.062 20.4531 114.094 21.2969 114.156 22.3906C114.25 23.4844 114.344 24.6875 114.438 26C114.562 27.2812 114.688 28.6094 114.812 29.9844C114.938 31.3281 115.062 32.5625 115.188 33.6875C115.312 34.7812 115.406 35.7031 115.469 36.4531C115.562 37.1719 115.609 37.5469 115.609 37.5781C115.609 37.9219 115.484 38.2031 115.234 38.4219C115.016 38.6719 114.703 38.8281 114.297 38.8906C113.953 38.8906 113.656 38.7812 113.406 38.5625C113.156 38.3438 113.016 38.0625 112.984 37.7188C112.984 37.625 112.938 37.2031 112.844 36.4531C112.75 35.7031 112.641 34.7812 112.516 33.6875C112.422 32.5625 112.312 31.3281 112.188 29.9844C112.062 28.6406 111.938 27.3281 111.812 26.0469C111.719 24.7344 111.625 23.5312 111.531 22.4375C111.469 21.3438 111.438 20.4844 111.438 19.8594C111.438 18.6719 111.391 17.2344 111.297 15.5469C110.484 15.6094 109.688 15.6875 108.906 15.7812C108.125 15.875 107.422 15.9688 106.797 16.0625C106.203 16.125 105.703 16.1875 105.297 16.25C104.922 16.3125 104.703 16.3438 104.641 16.3438C104.328 16.3438 104.047 16.2344 103.797 16.0156C103.547 15.7969 103.391 15.4688 103.328 15.0312C103.328 14.7188 103.422 14.4531 103.609 14.2344C103.828 13.9844 104.109 13.8281 104.453 13.7656C104.484 13.7656 104.688 13.7344 105.062 13.6719C105.469 13.5781 105.969 13.5 106.562 13.4375C107.188 13.3438 107.891 13.2656 108.672 13.2031C109.453 13.1094 110.266 13.0312 111.109 12.9688C111.047 12.0938 110.969 11.2344 110.875 10.3906C110.812 9.51562 110.734 8.6875 110.641 7.90625C110.578 7.09375 110.5 6.34375 110.406 5.65625C110.312 4.96875 110.219 4.375 110.125 3.875C110.125 3.5625 110.234 3.28125 110.453 3.03125C110.672 2.78125 111 2.625 111.438 2.5625C111.75 2.5625 112.016 2.65625 112.234 2.84375C112.484 3.03125 112.641 3.29687 112.703 3.64062C112.922 4.60938 113.125 5.9375 113.312 7.625C113.5 9.3125 113.672 11.0469 113.828 12.8281C114.891 12.8281 115.844 12.8594 116.688 12.9219C117.562 12.9844 118.297 13.0625 118.891 13.1562C119.516 13.25 120 13.3438 120.344 13.4375C120.719 13.5 120.922 13.5312 120.953 13.5312ZM133.938 36.2188C134.594 36.2188 135.312 35.9219 136.094 35.3281C136.875 34.7031 137.625 33.875 138.344 32.8438C139.094 31.8125 139.766 30.6094 140.359 29.2344C140.953 27.8281 141.391 26.3438 141.672 24.7812C141.453 23.2812 141.281 21.7031 141.156 20.0469C141.031 18.3906 140.953 16.625 140.922 14.75C140.578 14.4688 140.406 14.125 140.406 13.7188C140.188 13.625 139.953 13.5469 139.703 13.4844C139.484 13.4219 139.234 13.3906 138.953 13.3906C138.547 13.3906 137.969 13.4844 137.219 13.6719C136.469 13.8281 135.656 14.1094 134.781 14.5156C133.906 14.8906 133.016 15.3906 132.109 16.0156C131.234 16.6406 130.422 17.4062 129.672 18.3125C128.953 19.2188 128.359 20.2656 127.891 21.4531C127.422 22.6406 127.188 23.9844 127.188 25.4844C127.188 27.8594 127.375 29.75 127.75 31.1562C128.156 32.5625 128.672 33.6406 129.297 34.3906C129.953 35.1406 130.672 35.6406 131.453 35.8906C132.266 36.1094 133.094 36.2188 133.938 36.2188ZM144.344 24.7812C144.625 26.7188 144.953 28.4531 145.328 29.9844C145.703 31.5156 146.047 32.8125 146.359 33.875C146.703 34.9375 146.984 35.7656 147.203 36.3594C147.453 36.9219 147.578 37.2188 147.578 37.25C147.609 37.3438 147.625 37.4375 147.625 37.5312C147.656 37.5938 147.672 37.6719 147.672 37.7656C147.672 38.3281 147.422 38.7344 146.922 38.9844C146.672 39.0469 146.484 39.0781 146.359 39.0781C145.766 39.0781 145.375 38.8281 145.188 38.3281C145.125 38.2031 144.828 37.4688 144.297 36.125C143.797 34.75 143.266 32.8438 142.703 30.4062C142.203 31.625 141.609 32.75 140.922 33.7812C140.266 34.8125 139.547 35.7031 138.766 36.4531C138.016 37.2031 137.219 37.7812 136.375 38.1875C135.562 38.625 134.75 38.8438 133.938 38.8438C130.75 38.8438 128.391 37.75 126.859 35.5625C125.328 33.375 124.562 30.0156 124.562 25.4844C124.562 23.6094 124.844 21.9531 125.406 20.5156C125.969 19.0469 126.688 17.7656 127.562 16.6719C128.469 15.5781 129.469 14.6562 130.562 13.9062C131.688 13.1562 132.781 12.5469 133.844 12.0781C134.906 11.6094 135.891 11.2812 136.797 11.0938C137.703 10.875 138.422 10.7656 138.953 10.7656C139.891 10.7656 140.703 10.9531 141.391 11.3281C142.078 11.6719 142.641 12.0781 143.078 12.5469C143.547 12.9844 143.891 13.4062 144.109 13.8125C144.328 14.1875 144.438 14.3906 144.438 14.4219C144.531 14.5781 144.578 14.75 144.578 14.9375C144.578 15.25 144.438 15.5781 144.156 15.9219C144.438 17.3906 144.578 19.3281 144.578 21.7344C144.578 22.2344 144.547 22.7344 144.484 23.2344C144.453 23.7344 144.406 24.25 144.344 24.7812ZM169.703 27.2656C169.859 26.8594 169.953 26.4531 169.984 26.0469C170.047 25.6406 170.078 25.2344 170.078 24.8281C170.078 23.8281 169.906 22.8594 169.562 21.9219C169.25 20.9844 168.828 20.125 168.297 19.3438C167.766 18.5312 167.172 17.8125 166.516 17.1875C165.859 16.5312 165.203 16 164.547 15.5938C163.766 15.1562 162.828 14.9375 161.734 14.9375C160.766 14.9375 159.75 15.125 158.688 15.5C157.625 15.875 156.672 16.4688 155.828 17.2812C155.516 17.5312 155.219 17.6562 154.938 17.6562C154.75 17.6562 154.562 17.6094 154.375 17.5156C154.531 18.4844 154.703 19.6094 154.891 20.8906C155.078 22.1406 155.266 23.4688 155.453 24.875C155.641 26.2812 155.828 27.7188 156.016 29.1875C156.203 30.6562 156.359 32.0625 156.484 33.4062C156.922 33.5938 157.188 33.9531 157.281 34.4844C157.281 34.5156 157.312 34.625 157.375 34.8125C157.469 35 157.672 35.1875 157.984 35.375C158.484 35.6562 159.031 35.7969 159.625 35.7969C160 35.7969 160.359 35.75 160.703 35.6562C161.078 35.5625 161.422 35.4688 161.734 35.375C162.578 35.0625 163.406 34.625 164.219 34.0625C165.062 33.4688 165.844 32.8125 166.562 32.0938C167.281 31.3438 167.906 30.5625 168.438 29.75C169 28.9062 169.422 28.0781 169.703 27.2656ZM165.906 13.3906C166.812 13.9531 167.672 14.6406 168.484 15.4531C169.328 16.2656 170.062 17.1719 170.688 18.1719C171.312 19.1719 171.797 20.2344 172.141 21.3594C172.516 22.4844 172.703 23.6406 172.703 24.8281C172.703 25.9844 172.531 27.0625 172.188 28.0625C171.844 29.0625 171.344 30.0625 170.688 31.0625C170.062 32.0625 169.328 33 168.484 33.875C167.641 34.75 166.703 35.5312 165.672 36.2188C164.672 36.9062 163.656 37.4375 162.625 37.8125C161.594 38.2188 160.594 38.4219 159.625 38.4219C158.625 38.4219 157.672 38.1719 156.766 37.6719V38.7969C156.766 40.5156 156.812 42.3438 156.906 44.2812C157.031 46.2188 157.156 48.0156 157.281 49.6719C157.406 51.3281 157.516 52.7031 157.609 53.7969C157.734 54.9219 157.797 55.5156 157.797 55.5781C157.797 55.9219 157.688 56.2188 157.469 56.4688C157.25 56.7188 156.922 56.8594 156.484 56.8906C156.141 56.8906 155.844 56.7812 155.594 56.5625C155.375 56.3438 155.234 56.0625 155.172 55.7188C155.172 55.6875 155.109 55.1094 154.984 53.9844C154.891 52.8906 154.781 51.5 154.656 49.8125C154.531 48.1562 154.406 46.3438 154.281 44.375C154.188 42.4062 154.141 40.5469 154.141 38.7969C154.141 37.6719 154.062 36.2969 153.906 34.6719C153.781 33.0469 153.609 31.3594 153.391 29.6094C153.203 27.8281 152.984 26.0625 152.734 24.3125C152.484 22.5625 152.25 20.9844 152.031 19.5781C151.812 18.1719 151.625 17.0312 151.469 16.1562C151.344 15.25 151.281 14.7656 151.281 14.7031C151.281 13.9844 151.719 13.5469 152.594 13.3906C152.938 13.3906 153.219 13.4844 153.438 13.6719C153.688 13.8594 153.844 14.125 153.906 14.4688L154.047 15.3594C155.172 14.2969 156.406 13.5312 157.75 13.0625C159.094 12.5625 160.406 12.3125 161.688 12.3125C163.344 12.3125 164.75 12.6719 165.906 13.3906ZM185.922 36.2188C186.578 36.2188 187.297 35.9219 188.078 35.3281C188.859 34.7031 189.609 33.875 190.328 32.8438C191.078 31.8125 191.75 30.6094 192.344 29.2344C192.938 27.8281 193.375 26.3438 193.656 24.7812C193.438 23.2812 193.266 21.7031 193.141 20.0469C193.016 18.3906 192.938 16.625 192.906 14.75C192.562 14.4688 192.391 14.125 192.391 13.7188C192.172 13.625 191.938 13.5469 191.688 13.4844C191.469 13.4219 191.219 13.3906 190.938 13.3906C190.531 13.3906 189.953 13.4844 189.203 13.6719C188.453 13.8281 187.641 14.1094 186.766 14.5156C185.891 14.8906 185 15.3906 184.094 16.0156C183.219 16.6406 182.406 17.4062 181.656 18.3125C180.938 19.2188 180.344 20.2656 179.875 21.4531C179.406 22.6406 179.172 23.9844 179.172 25.4844C179.172 27.8594 179.359 29.75 179.734 31.1562C180.141 32.5625 180.656 33.6406 181.281 34.3906C181.938 35.1406 182.656 35.6406 183.438 35.8906C184.25 36.1094 185.078 36.2188 185.922 36.2188ZM196.328 24.7812C196.609 26.7188 196.938 28.4531 197.312 29.9844C197.688 31.5156 198.031 32.8125 198.344 33.875C198.688 34.9375 198.969 35.7656 199.188 36.3594C199.438 36.9219 199.562 37.2188 199.562 37.25C199.594 37.3438 199.609 37.4375 199.609 37.5312C199.641 37.5938 199.656 37.6719 199.656 37.7656C199.656 38.3281 199.406 38.7344 198.906 38.9844C198.656 39.0469 198.469 39.0781 198.344 39.0781C197.75 39.0781 197.359 38.8281 197.172 38.3281C197.109 38.2031 196.812 37.4688 196.281 36.125C195.781 34.75 195.25 32.8438 194.688 30.4062C194.188 31.625 193.594 32.75 192.906 33.7812C192.25 34.8125 191.531 35.7031 190.75 36.4531C190 37.2031 189.203 37.7812 188.359 38.1875C187.547 38.625 186.734 38.8438 185.922 38.8438C182.734 38.8438 180.375 37.75 178.844 35.5625C177.312 33.375 176.547 30.0156 176.547 25.4844C176.547 23.6094 176.828 21.9531 177.391 20.5156C177.953 19.0469 178.672 17.7656 179.547 16.6719C180.453 15.5781 181.453 14.6562 182.547 13.9062C183.672 13.1562 184.766 12.5469 185.828 12.0781C186.891 11.6094 187.875 11.2812 188.781 11.0938C189.688 10.875 190.406 10.7656 190.938 10.7656C191.875 10.7656 192.688 10.9531 193.375 11.3281C194.062 11.6719 194.625 12.0781 195.062 12.5469C195.531 12.9844 195.875 13.4062 196.094 13.8125C196.312 14.1875 196.422 14.3906 196.422 14.4219C196.516 14.5781 196.562 14.75 196.562 14.9375C196.562 15.25 196.422 15.5781 196.141 15.9219C196.422 17.3906 196.562 19.3281 196.562 21.7344C196.562 22.2344 196.531 22.7344 196.469 23.2344C196.438 23.7344 196.391 24.25 196.328 24.7812ZM217 11.2344C217.688 11.2344 218.266 11.2969 218.734 11.4219C219.203 11.5156 219.578 11.6406 219.859 11.7969C220.172 11.9219 220.406 12.0625 220.562 12.2188C220.75 12.375 220.875 12.5 220.938 12.5938C221.094 12.8125 221.172 13.0469 221.172 13.2969C221.172 13.7969 220.984 14.1562 220.609 14.375C220.422 14.5312 220.172 14.6094 219.859 14.6094C219.484 14.6094 219.156 14.4688 218.875 14.1875C218.812 14.1562 218.641 14.0938 218.359 14C218.109 13.9062 217.656 13.8594 217 13.8594C216.625 13.8594 215.953 14.0938 214.984 14.5625C214.016 15.0312 213.031 15.7969 212.031 16.8594C211.031 17.9219 210.125 19.3125 209.312 21.0312C208.531 22.7188 208.141 24.7969 208.141 27.2656C208.234 27.6719 208.328 28.0938 208.422 28.5312C208.516 28.9375 208.625 29.3594 208.75 29.7969C209.094 31.2031 209.438 32.6719 209.781 34.2031C210.125 35.7344 210.297 37.2969 210.297 38.8906C210.297 39.2656 210.156 39.5781 209.875 39.8281C209.625 40.0781 209.328 40.2031 208.984 40.2031C208.609 40.2031 208.297 40.0781 208.047 39.8281C207.797 39.5781 207.672 39.2656 207.672 38.8906C207.672 37.4531 207.516 36.0156 207.203 34.5781C206.891 33.1406 206.562 31.7656 206.219 30.4531C205.906 29.2969 205.625 28.1875 205.375 27.125C205.156 26.0312 205.047 25.0312 205.047 24.125C205.047 23.2188 204.984 22.0781 204.859 20.7031C204.734 19.3281 204.578 18 204.391 16.7188C204.234 15.4062 204.094 14.2812 203.969 13.3438C203.844 12.375 203.781 11.8594 203.781 11.7969C203.781 11.4844 203.891 11.2031 204.109 10.9531C204.328 10.7031 204.656 10.5469 205.094 10.4844C205.406 10.4844 205.672 10.5938 205.891 10.8125C206.141 11 206.297 11.2656 206.359 11.6094C206.359 11.6719 206.391 11.9375 206.453 12.4062C206.547 12.8438 206.641 13.4062 206.734 14.0938C206.828 14.7812 206.922 15.5625 207.016 16.4375C207.141 17.3125 207.25 18.1875 207.344 19.0625C207.969 17.7812 208.703 16.6562 209.547 15.6875C210.422 14.6875 211.312 13.8594 212.219 13.2031C213.125 12.5469 214 12.0625 214.844 11.75C215.688 11.4062 216.406 11.2344 217 11.2344ZM239.734 13.5312C240.016 13.5938 240.25 13.7656 240.438 14.0469C240.625 14.3281 240.703 14.6875 240.672 15.125C240.516 15.7812 239.984 16.1094 239.078 16.1094C239.078 16.0781 238.5 15.9688 237.344 15.7812C236.188 15.5938 234.641 15.4844 232.703 15.4531C232.797 17.2344 232.844 18.7031 232.844 19.8594C232.844 20.4531 232.875 21.2969 232.938 22.3906C233.031 23.4844 233.125 24.6875 233.219 26C233.344 27.2812 233.469 28.6094 233.594 29.9844C233.719 31.3281 233.844 32.5625 233.969 33.6875C234.094 34.7812 234.188 35.7031 234.25 36.4531C234.344 37.1719 234.391 37.5469 234.391 37.5781C234.391 37.9219 234.266 38.2031 234.016 38.4219C233.797 38.6719 233.484 38.8281 233.078 38.8906C232.734 38.8906 232.438 38.7812 232.188 38.5625C231.938 38.3438 231.797 38.0625 231.766 37.7188C231.766 37.625 231.719 37.2031 231.625 36.4531C231.531 35.7031 231.422 34.7812 231.297 33.6875C231.203 32.5625 231.094 31.3281 230.969 29.9844C230.844 28.6406 230.719 27.3281 230.594 26.0469C230.5 24.7344 230.406 23.5312 230.312 22.4375C230.25 21.3438 230.219 20.4844 230.219 19.8594C230.219 18.6719 230.172 17.2344 230.078 15.5469C229.266 15.6094 228.469 15.6875 227.688 15.7812C226.906 15.875 226.203 15.9688 225.578 16.0625C224.984 16.125 224.484 16.1875 224.078 16.25C223.703 16.3125 223.484 16.3438 223.422 16.3438C223.109 16.3438 222.828 16.2344 222.578 16.0156C222.328 15.7969 222.172 15.4688 222.109 15.0312C222.109 14.7188 222.203 14.4531 222.391 14.2344C222.609 13.9844 222.891 13.8281 223.234 13.7656C223.266 13.7656 223.469 13.7344 223.844 13.6719C224.25 13.5781 224.75 13.5 225.344 13.4375C225.969 13.3438 226.672 13.2656 227.453 13.2031C228.234 13.1094 229.047 13.0312 229.891 12.9688C229.828 12.0938 229.75 11.2344 229.656 10.3906C229.594 9.51562 229.516 8.6875 229.422 7.90625C229.359 7.09375 229.281 6.34375 229.188 5.65625C229.094 4.96875 229 4.375 228.906 3.875C228.906 3.5625 229.016 3.28125 229.234 3.03125C229.453 2.78125 229.781 2.625 230.219 2.5625C230.531 2.5625 230.797 2.65625 231.016 2.84375C231.266 3.03125 231.422 3.29687 231.484 3.64062C231.703 4.60938 231.906 5.9375 232.094 7.625C232.281 9.3125 232.453 11.0469 232.609 12.8281C233.672 12.8281 234.625 12.8594 235.469 12.9219C236.344 12.9844 237.078 13.0625 237.672 13.1562C238.297 13.25 238.781 13.3438 239.125 13.4375C239.5 13.5 239.703 13.5312 239.734 13.5312ZM266.078 11.3281C266.516 11.5781 266.734 11.9531 266.734 12.4531C266.734 12.7344 266.672 12.9531 266.547 13.1094L266.172 13.7656C265.922 14.2344 265.609 14.8281 265.234 15.5469C264.859 16.2344 264.453 17 264.016 17.8438C263.578 18.6562 263.172 19.4531 262.797 20.2344C262.484 20.8906 262.281 21.4375 262.188 21.875C262.094 22.2812 262.016 22.7188 261.953 23.1875C261.891 23.5 261.828 23.8281 261.766 24.1719C261.734 24.5156 261.656 24.9219 261.531 25.3906C261.438 25.8281 261.297 26.3281 261.109 26.8906C260.922 27.4531 260.672 28.0938 260.359 28.8125C259.672 30.375 259.234 31.6719 259.047 32.7031C258.859 33.7031 258.703 34.7031 258.578 35.7031L258.484 36.9688C258.484 37.1875 258.438 37.3906 258.344 37.5781C258.281 37.9219 258.219 38.2656 258.156 38.6094C258.094 38.9844 258.016 39.3906 257.922 39.8281C257.672 40.8906 257.438 41.75 257.219 42.4062C257.031 43.0938 256.828 43.75 256.609 44.375C256.359 45.0938 256.094 45.8906 255.812 46.7656C255.562 47.6406 255.281 48.8438 254.969 50.375C254.688 51.7812 254.438 53.0781 254.219 54.2656C254 55.4844 253.828 56.5312 253.703 57.4062C253.578 58.2812 253.484 58.9688 253.422 59.4688L253.328 60.2188C253.266 60.5625 253.109 60.8281 252.859 61.0156C252.609 61.2344 252.281 61.3438 251.875 61.3438C251.094 61.25 250.703 60.7656 250.703 59.8906C250.703 59.8594 250.734 59.5781 250.797 59.0469C250.891 58.5469 251 57.8438 251.125 56.9375C251.25 56.0625 251.422 55.0156 251.641 53.7969C251.859 52.6094 252.109 51.2969 252.391 49.8594C252.547 49.0469 252.703 48.3281 252.859 47.7031C253.016 47.0781 253.156 46.5156 253.281 46.0156C253.438 45.5156 253.578 45.0625 253.703 44.6562C253.859 44.25 254 43.8594 254.125 43.4844C254.344 42.8906 254.547 42.2812 254.734 41.6562C254.922 41.0312 255.125 40.2344 255.344 39.2656C255.438 38.8906 255.5 38.5312 255.531 38.1875C255.594 37.875 255.656 37.5625 255.719 37.25C255.406 36.8125 254.969 36.2031 254.406 35.4219C253.875 34.6094 253.359 33.7656 252.859 32.8906C252.578 32.3906 252.172 31.75 251.641 30.9688C251.109 30.1562 250.547 29.3281 249.953 28.4844C249.391 27.6406 248.828 26.8438 248.266 26.0938C247.734 25.3125 247.312 24.6875 247 24.2188L246.625 23.6562C246.438 23.4062 246.188 22.9219 245.875 22.2031C245.594 21.4844 245.156 20.375 244.562 18.875C244.312 18.2812 244.062 17.6719 243.812 17.0469C243.562 16.4219 243.312 15.8281 243.062 15.2656C242.844 14.6719 242.625 14.1562 242.406 13.7188C242.188 13.25 242 12.8906 241.844 12.6406C241.719 12.3281 241.656 12.1094 241.656 11.9844C241.656 11.4844 241.875 11.1094 242.312 10.8594C242.469 10.7344 242.688 10.6719 242.969 10.6719C243.5 10.6719 243.875 10.875 244.094 11.2812C244.438 11.875 244.875 12.7969 245.406 14.0469C245.938 15.2656 246.469 16.5625 247 17.9375C247.188 18.375 247.359 18.8281 247.516 19.2969C247.703 19.7344 247.875 20.1562 248.031 20.5625C248.219 20.9375 248.375 21.2812 248.5 21.5938C248.625 21.9062 248.719 22.1094 248.781 22.2031L249.156 22.7188C249.469 23.1875 249.891 23.8125 250.422 24.5938C250.984 25.375 251.562 26.2031 252.156 27.0781C252.75 27.9531 253.312 28.7969 253.844 29.6094C254.375 30.4219 254.797 31.0781 255.109 31.5781C255.266 31.8906 255.438 32.2031 255.625 32.5156C255.844 32.7969 256.047 33.0938 256.234 33.4062C256.391 32.6562 256.578 31.8438 256.797 30.9688C257.047 30.0625 257.422 29.0156 257.922 27.8281C258.453 26.5156 258.797 25.5 258.953 24.7812C259.141 24.0312 259.281 23.375 259.375 22.8125C259.438 22.2812 259.531 21.7344 259.656 21.1719C259.781 20.6094 260.031 19.9219 260.406 19.1094C260.781 18.3281 261.188 17.5156 261.625 16.6719C262.062 15.8281 262.469 15.0625 262.844 14.375C263.25 13.6562 263.578 13.0625 263.828 12.5938C264.109 12.125 264.266 11.8594 264.297 11.7969C264.547 11.3594 264.922 11.1406 265.422 11.1406C265.703 11.1406 265.922 11.2031 266.078 11.3281Z" fill="#BC13FE"/>
</svg>
